<?xml version="1.0" encoding="UTF-8"?>
<svg id="Layer_1" data-name="Layer 1" xmlns="http://www.w3.org/2000/svg" version="1.1" viewBox="0 0 300 65">
  <defs>
    <style>
      .cls-1 {
        fill: #fcb0b3;
        stroke-width: 0px;
      }
    </style>
  </defs>
  <path class="cls-1" d="M69.6,52.6l.4-.9,2-.2c1.3-.1,1.4-.4,1.6-1l6.4-33.2c.2-.8,0-1.1-1.3-1.2l-1.9-.2v-.9h10.6c6.3,0,9.3,3.6,9.3,7.8s-4.1,8.7-9.8,9.5v.2c4.7,1,7.6,4.2,7.6,8.7s-4.6,11.2-12.9,11.2c0,0-11.9,0-11.9,0ZM80.6,51.6c5.6,0,9-4.7,9-10.9s-2.4-7.8-6.5-7.8-1.7.1-1.7.1l-3.4,17.9,2.7.7ZM84.6,16.2l-3,15.5c.7,0,1.6.1,2.6.1,4.4,0,7.7-4.3,7.7-9.2s-2-6.4-5.8-6.4h-1.6Z"/>
  <path class="cls-1" d="M112.6,45.5c-1.9,4-5,7.9-8.8,7.9s-5.6-3.9-5.6-8c0-8.5,6.2-19.4,12.7-19.4s4.9,1.9,4.9,4.1c0,3.5-3.4,6.8-13.2,9.4-.4,1.7-.7,3.6-.7,5.3,0,3.9,1,5.9,3.6,5.9s4.1-1.9,6.5-5.6c0,0,.5.4.5.4ZM103,38.6c7.1-2.3,9.2-5.1,9.2-8.8s-.7-2.6-1.9-2.6c-2.8,0-6,5.5-7.5,11.4h.1Z"/>
  <path class="cls-1" d="M147.9,52.6l.4-.9h.8c2.2-.3,2.3-1.1,1.6-4.5l-3.7-14.8-4.3,4.7-2.5,13.1c-.2.8,0,1.1,1.3,1.2l1.7.2v.9h-11.5l.4-.9,2-.2c1.3-.1,1.4-.4,1.6-1l6.4-33.2c.2-.8,0-1.1-1.3-1.2l-1.9-.2v-.9h11.5l-.4.9-1.9.2c-1.3.1-1.4.4-1.6,1l-3.4,17.4h.3l12.1-13.5c2.9-3.3,2.9-4.6.8-4.9l-1.9-.2v-.9h10.6l-.4.9h-.8c-2,.2-3.5,1.5-7.1,5.5l-6.4,7.1,4.9,19.7c.7,2.3,1.4,3.1,3.3,3.4h.4v1s-11.2,0-11.2,0Z"/>
  <path class="cls-1" d="M172.7,45l.5.5c-2.8,5.3-5.3,7.9-7.1,7.9s-3.4-1.5-3.1-2.4l7.6-22.1-2.2-.3-4.4,6-.5-.4c2.6-4.9,5.4-8.1,7.5-8.1s3.5,1.9,2.8,3.8l-7.4,20.8,2,.3,4.4-5.9h0ZM172.5,17.8c0-2,1.3-3.5,2.6-3.5s2.4,1.1,2.4,2.6-1.3,3.5-2.6,3.5-2.4-1.1-2.4-2.6Z"/>
  <path class="cls-1" d="M199.1,45.1l.5.5c-2.9,5.3-5.1,7.9-7,7.9s-3.3-1.4-3.3-2.2,1.3-4.1,4.9-13.4c1-2.6,2.4-6.5,2.4-7.8s-1-1.5-1.9-1.5c-1.4,0-5.2,5.7-11.4,19.4l-1.5,4.8-3.5-.3,2.8-9.4,4-14.2-2-.3-4.4,6-.5-.4c2.6-4.9,5.4-8.1,7.4-8.1s3.3,1.8,2.8,3.5l-4.2,13.7h.4c3.4-7.1,6.6-13.2,8.6-15.5,1-1.1,2.1-1.8,3.3-1.8,2,0,3.7,1.6,3.7,3.5s-1.6,6.2-3.1,10l-4.4,11.2,2.2.3,4.3-5.9h0Z"/>
  <path class="cls-1" d="M224.9,45l.5.5c-2.8,5.3-5,7.9-7.1,7.9s-2.9-1.6-2.9-2.6.7-3.5,2.8-9.8h-.2c-3.8,7.2-6.8,12.4-9.9,12.4s-4-2.2-4-5.4c0-8.2,7.8-22,13.9-22s2.8,2.3,2.8,5.5h.2l4.6-15.8c.2-.6.1-1-.7-1.1l-2.9-.3v-.7c.1,0,8.4-1.4,8.4-1.4l-8.2,26.3-3.6,12.2,2,.3,4.3-5.9h0ZM215.8,28.4c-4.3,0-7.8,12.8-7.8,18.7s.8,3.3,1.9,3.3c2.2,0,5.5-6.2,9.2-13.3.5-.9,1.1-2.9,1.1-3.9-.3-2-2.1-4.9-4.4-4.9Z"/>
</svg>