<?xml version="1.0" encoding="UTF-8"?>
<svg id="Layer_1" data-name="Layer 1" xmlns="http://www.w3.org/2000/svg" version="1.1" viewBox="0 0 519 179">
  <defs>
    <style>
      .cls-1 {
        fill: #fcecc9;
      }

      .cls-1, .cls-2 {
        stroke-width: 0px;
      }

      .cls-2 {
        fill: #4a8ff7;
      }

      .cls-3 {
        isolation: isolate;
      }
    </style>
  </defs>
  <path class="cls-2" d="M78.4,0h343.2c43.3,0,78.4,35.1,78.4,78.4h0c0,12-2.7,23.4-7.5,33.6-.7,4.8-6.6,48.9,26.5,66.8,0,0-48.6,4.5-84.3-22.8-.1-.1-.2-.2-.4-.3-4.1.7-8.4,1-12.7,1H78.4C35.1,156.8,0,121.7,0,78.4h0C0,35.1,35.1,0,78.4,0Z"/>
  <g class="cls-3">
    <g class="cls-3">
      <path class="cls-1" d="M94.8,104.9c1.6,0,3.2-1.3,3.8-2.4h.5c-1.1,1.9-3.4,3.6-7,3.6s-5.5-3-5-6.6c-2.9,4.3-7.8,6.7-12.5,6.7-8.3,0-15.8-7.6-12.1-21.1,2.9-10.9,10.6-21.4,23.4-21.4s15.5,8.1,12.2,20.2c-4.1,15.2-3.3,12.4-3.7,14.1-1.4,5.1-1.8,6.8.4,6.8ZM91.9,81c2-7.5,3.8-16.7-6.2-16.7s-11.6,7.1-13.2,12.9l-3.1,11.6c-2.6,9.8-1.6,17,5.3,17s12-5.1,12.7-7.8l4.6-17Z"/>
      <path class="cls-1" d="M110.8,105.7c-2.2-.4-4.7-.5-7,0,2.9-11.2,1.7-6.3,10.8-40.3h-2v-.5c5,0,7.2,0,9.2-.4l-1.6,6.1c1.4-2.1,3.2-3.8,5.3-5,5.6-3.4,13.6-2,16.6,2.7,1.9,2.9,2,7.2.7,11.9-6.2,23.3-4.4,16.4-4.8,17.9-1.3,5.1-1.8,6.8.4,6.8s3.2-1.3,3.8-2.4h.5c-1.1,1.9-3.4,3.6-6.9,3.6-6.2,0-5.5-5.4-4.1-10.6,1.7-6.2,3.3-12.3,5-18.6,1.5-5.5,1.5-12.7-4.8-12.7s-11.3,5.4-12.2,8.7l-8.8,32.7Z"/>
      <path class="cls-1" d="M189.1,76.6c-.8,2.9-1.5,5.6-2.3,8.5-2.7,9.7-8.8,21.1-22.2,21.1h-.4c-9.7,0-15.9-9-12.4-21.5,4.1-15.1,13.2-20.9,23.2-20.9s8.2,2.5,9,6l6.1-22.8h-2v-.5c5,0,7.2,0,9.2-.4l-8.2,30.6ZM164.6,105.7c8.8,0,11.8-7.8,13.4-14.1l5.2-19.4c1-3.4-1.8-8-8.3-8s-11.9,7.8-14.4,17l-3.1,11.4c-1.6,6-.3,13,6.8,13h.4Z"/>
      <path class="cls-1" d="M213.6,96c0-3,2.2-4.6,4.4-4.6,5,0,5.7,8.1.3,8.1s-2.3,1.3-1.5,2.5c2.1,3.1,5.7,3.8,9.4,3.8,7.2,0,13.1-3.5,13-9.5-.4-8.5-19.4-8.8-19.3-20,0-8.6,13.6-15.8,23.2-10.7,5.6,2.9,5.5,10,0,10s-5.7-5.2-1.6-7.3c.5-.2.7-.5.8-.9.4-2.4-4-2.9-6-2.9-4.3,0-11.4,1.6-11.4,8.1,0,9.2,19.7,8.1,19.3,19.7-.3,6.6-6.7,14-17.9,14s-12.5-3.6-12.6-10.2Z"/>
      <path class="cls-1" d="M281.5,96.8c-3.1,4.8-8,9.5-16.5,9.5s-15-11.2-12.2-21.4c.6-2.2,2.2-8.1,5.5-12.7,4.2-5.7,10-8.3,16.4-8.3s13,5.3,11.5,11.1c-1.4,5.1-10.9,6.1-9.3-.2.8-3.1,4.7-3.2,5.4-4.8,1.7-3.8-3.6-5.6-7.1-5.6-8,0-10.8,8-11.6,10.9l-5.2,19.4c-1.5,5.6.1,11.2,6.6,11.2s13.1-4.5,16-9.1h.4Z"/>
      <path class="cls-1" d="M287.1,105.7c10.2-37.9,10.9-40.3,10.9-40.3h-2v-.5c5,0,7.2,0,9.2-.4l-3,11.2c4.3-6.2,9.9-12,15.5-12s3.8,8.6-1.2,8.6-3.3-1.5-2.7-3.5c.3-1.2,1-1.9,1.3-2.8.1-.5-.1-.7-.3-.7-4.1,0-9.5,6.9-10.2,7.8-2.7,3.5-2.8,3.9-3.8,7.4-5.5,20.7-1.2,4.5-6.7,25.1-2.2-.4-4.7-.5-7,0Z"/>
      <path class="cls-1" d="M321.1,84.9c2.9-11,11.2-21.1,23.7-21.1s15.1,10.6,12.3,21.1c-2.9,11-11.6,21.3-23.7,21.3s-15.3-10.3-12.3-21.3ZM350.4,79.5c2.4-8.8,2.8-15.2-5.8-15.2s-11.6,6.4-13.9,15.2l-3.6,13.3c-1.5,5.7-2.1,13,6.4,13s11.8-7.2,13.4-13l3.6-13.3Z"/>
      <path class="cls-1" d="M370.2,98.1c-1.3,5.1-1.8,6.8.4,6.8s3.2-1.3,3.8-2.4h.5c-1.1,1.9-3.4,3.6-6.9,3.6-6.2,0-5.5-5.4-4.1-10.6l13-48.7h-2v-.5c5,0,7.2,0,9.2-.4-15.2,56.7-13.9,52.1-13.9,52.1Z"/>
      <path class="cls-1" d="M390.5,98.1c-1.3,5.1-1.8,6.8.4,6.8s3.2-1.3,3.8-2.4h.5c-1,1.9-3.4,3.6-6.9,3.6-6.2,0-5.5-5.4-4.1-10.6l13-48.7h-2v-.5c5,0,7.2,0,9.2-.4-15.2,56.7-13.9,52.1-13.9,52.1Z"/>
    </g>
  </g>
</svg>