<?xml version="1.0" encoding="UTF-8"?>
<svg id="Layer_1" data-name="Layer 1" xmlns="http://www.w3.org/2000/svg" version="1.1" viewBox="0 0 300 65">
  <defs>
    <style>
      .cls-1 {
        fill: #7eb2dd;
        stroke-width: 0px;
      }
    </style>
  </defs>
  <path class="cls-1" d="M85.4,34.7c-2.9,7.7-9.4,12.9-18.8,12.9s-15.4-6.4-15.4-14.4c0-11.6,9.3-18,21.7-18s8.1.4,13.4,1.8l-1.1,13v-.3c-3.3-8.2-11.6-13.5-16.2-13.5s-5.3,2.3-5.3,5.3c0,8.1,10.8,14.9,21.7,13.1h0c0,0,0,0,0,0Z"/>
  <path class="cls-1" d="M86.1,36.4c0-8.5,6.7-13.5,16-13.5s12.5,4.7,12.5,11.2-6.6,13.5-16,13.5-12.6-4.7-12.6-11.2h0ZM101.2,35.4c-1.4-9.4-2.1-11.6-2.7-11.4s-.5,2.1.9,11c1.4,9.4,2.1,11.6,2.7,11.4.6-.2.4-2.5-.9-11Z"/>
  <path class="cls-1" d="M142.1,43c-.2,1.3-.2,2.2,1.2,2.2h0c-2.7,1.5-5.8,2.2-9,2.2s-6-.7-5.2-5l2.4-13.5c.1-.9,0-1.4-.8-1.4s-.3,0-.5.1l-3.4,19.2-13.1.5,3.4-19.6c.2-1.3.2-2.2-1.2-2.2h0c2.7-1.4,5.7-2.2,9-2.2s5.8.7,5.3,3.3v.6c2.5-2.6,6-4.3,9.4-4.3s5.7,1.8,5,6l-2.5,14.1h0Z"/>
  <path class="cls-1" d="M172.1,43c-.2,1.3-.2,2.2,1.2,2.2h0c-2.7,1.5-5.8,2.2-8.9,2.2s-6-.7-5.2-5l2.4-13.5c.1-.9,0-1.4-.8-1.4s-.4,0-.5.1l-3.4,19.2-13.1.5,3.4-19.6c.2-1.3.2-2.2-1.2-2.2h0c2.7-1.4,5.7-2.2,9-2.2s5.9.7,5.3,3.3v.6c2.5-2.6,6-4.3,9.4-4.3s5.7,1.8,5,6l-2.5,14.1h0Z"/>
  <path class="cls-1" d="M202.3,35.4c-2.4,7.1-7.8,12.2-16.1,12.2s-11.3-4.7-11.3-10.4c0-8.5,7.1-14.2,15.9-14.2s12.7,4.4,9.9,11.9h-12.2c1.2,1.8,3.2,2.8,6.5,2.8s4.5-.5,7.2-2.3h0ZM187.7,24c-.6,0-.8,1.7-.8,3.4,0,2.9.3,5.2,1.2,6.9.9-3.9,1.1-10.3-.4-10.3h0Z"/>
  <path class="cls-1" d="M220.9,38c2.7,0,5.9-.7,8.9-2.6h0c-3,8-8.8,12.2-16.1,12.2s-11.3-4.1-11.3-10.3,8-14.4,17.1-14.4,10.4,2.2,10.4,6.7-4,7.3-8.2,7.3-5.4-1.8-5.4-4.9,2.6-6.4,6.3-8c-1.1-.4-2.4-.5-3.6-.5-9.9,0-10.4,14.4,1.9,14.4h0Z"/>
  <path class="cls-1" d="M243.4,39.7c-.5,3.2-.4,4.2,1.8,4.3h0c-1.8,1.8-4.9,3.5-9.4,3.5-6.8,0-5.9-5.3-5.4-8l2.7-15.5h-2.3c0,0,16.7-8,16.7-8h0l-1.3,7.5h2.5v.5h-2.6l-2.8,15.7Z"/>
</svg>