<?xml version="1.0" encoding="UTF-8"?>
<svg id="Layer_1" data-name="Layer 1" xmlns="http://www.w3.org/2000/svg" version="1.1" viewBox="0 0 914 315.3">
  <defs>
    <style>
      .cls-1 {
        fill: #fcecc9;
      }

      .cls-1, .cls-2 {
        stroke-width: 0px;
      }

      .cls-2 {
        fill: #606060;
      }

      .cls-3 {
        isolation: isolate;
      }
    </style>
  </defs>
  <path class="cls-2" d="M776,0H171.5C95.3,0,33.5,61.8,33.5,138h0c0,21.1,4.8,41.2,13.3,59.1,1.3,8.4,11.5,86.1-46.7,117.7,0,0,85.7,7.9,148.5-40.1.2-.2.4-.3.6-.5,7.3,1.2,14.8,1.8,22.4,1.8h604.5c76.2,0,138-61.8,138-138h0c0-76.2-61.8-138-138-138Z"/>
  <g class="cls-3">
    <g class="cls-3">
      <path class="cls-1" d="M263.6,187.9c2.7,0,5.4-2.2,6.4-4h.8c-1.9,3.2-5.8,6.1-11.8,6.1s-9.2-5.1-8.4-11.1c-4.8,7.2-13.2,11.2-21,11.2-14.1,0-26.6-12.8-20.4-35.6,4.8-18.3,18-36,39.5-36s26.1,13.7,20.6,34.2c-6.9,25.6-5.6,20.9-6.3,23.8-2.4,8.6-3,11.5.7,11.5ZM258.8,147.5c3.4-12.6,6.4-28.1-10.5-28.1s-19.6,12.1-22.2,21.7l-5.3,19.5c-4.4,16.5-2.7,28.7,9,28.7s20.2-8.6,21.4-13.1l7.7-28.7Z"/>
      <path class="cls-1" d="M290.7,189.2c-3.8-.6-7.9-.8-11.8.1,5-18.9,2.8-10.6,18.2-68.1h-3.3l.2-.8c8.3,0,11.9-.1,15.2-.7l-2.7,10.3c2.4-3.5,5.4-6.4,8.9-8.4,9.5-5.7,22.9-3.4,28,4.5,3.2,5,3.3,12.2,1.2,20.1-10.5,39.4-7.4,27.7-8.2,30.3-2.2,8.6-3,11.5.7,11.5s5.4-2.2,6.4-4h.8c-1.8,3.2-5.7,6.1-11.7,6.1-10.5,0-9.3-9.1-7-17.8,2.8-10.5,5.6-20.8,8.4-31.3,2.5-9.2,2.6-21.5-8-21.5s-19,9.1-20.6,14.7l-14.8,55.2Z"/>
      <path class="cls-1" d="M422.8,140.2c-1.3,5-2.6,9.5-3.9,14.4-4.5,16.3-14.9,35.6-37.5,35.6h-.6c-16.4,0-26.8-15.1-20.9-36.3,7-25.4,22.2-35.3,39.1-35.3s13.8,4.1,15.1,10l10.3-38.5h-3.3l.2-.8c8.3,0,11.9-.1,15.2-.7l-13.8,51.6ZM381.6,189.4c14.9,0,19.9-13.2,22.7-23.8l8.7-32.7c1.7-5.8-3.1-13.5-14.1-13.5s-20.1,13.1-24.2,28.7l-5.2,19.3c-2.7,10.2-.5,22,11.5,22h.6Z"/>
      <path class="cls-1" d="M464.2,172.9c-.1-5.1,3.8-7.8,7.4-7.8,8.4,0,9.7,13.6.5,13.6s-3.9,2.1-2.5,4.3c3.5,5.2,9.7,6.4,15.8,6.4,12.2,0,22.1-5.9,21.9-16.1-.6-14.3-32.7-14.9-32.6-33.8.1-14.5,22.9-26.6,39.2-18.1,9.5,5,9.3,16.9-.1,16.9s-9.6-8.9-2.7-12.3c.8-.4,1.2-.8,1.3-1.5.6-4-6.7-5-10-5-7.2,0-19.3,2.7-19.3,13.7,0,15.6,33.3,13.7,32.5,33.3-.5,11.1-11.2,23.6-30.1,23.6s-21-6-21.3-17.3Z"/>
      <path class="cls-1" d="M578.8,174.2c-5.3,8-13.5,16-27.8,16s-25.3-18.9-20.6-36.2c1.1-3.8,3.7-13.7,9.3-21.5,7.1-9.6,16.9-13.9,27.7-13.9s22,9,19.4,18.8c-2.4,8.6-18.3,10.3-15.7-.4,1.4-5.2,7.9-5.4,9.1-8.2,2.8-6.5-6-9.5-12.1-9.5-13.5,0-18.2,13.5-19.5,18.3l-8.7,32.7c-2.5,9.5.2,18.9,11.1,18.9s22.1-7.6,27.1-15.4l.7.2Z"/>
      <path class="cls-1" d="M588.3,189.4c17.3-64.1,18.3-68.1,18.3-68.1h-3.3l.2-.8c8.3,0,11.9-.1,15.2-.7l-5.1,18.9c7.2-10.4,16.8-20.2,26.2-20.2s6.4,14.5-2,14.5-5.6-2.5-4.6-5.9c.6-2,1.8-3.2,2.2-4.7.2-.8-.2-1.2-.6-1.2-6.9,0-16,11.6-17.1,13.2-4.6,5.9-4.7,6.6-6.4,12.5-9.3,35-2,7.6-11.3,42.3-3.8-.6-7.9-.8-11.8.1Z"/>
      <path class="cls-1" d="M645.7,154.3c5-18.6,18.9-35.7,39.9-35.7s25.5,17.8,20.8,35.7c-5,18.6-19.6,35.9-39.9,35.9s-25.8-17.4-20.8-35.9ZM695.2,145c4-14.9,4.7-25.6-9.8-25.6s-19.5,10.8-23.5,25.6l-6,22.5c-2.6,9.7-3.5,21.9,10.8,21.9s20-12.2,22.6-21.9l6-22.5Z"/>
      <path class="cls-1" d="M728.7,176.5c-2.2,8.6-3,11.5.7,11.5s5.4-2.2,6.4-4h.8c-1.8,3.2-5.7,6.1-11.7,6.1-10.5,0-9.3-9.1-7-17.8l22-82.1h-3.3l.2-.8c8.3,0,11.9-.1,15.2-.7-25.6,95.7-23.4,87.9-23.4,87.9Z"/>
      <path class="cls-1" d="M763,176.5c-2.2,8.6-3,11.5.7,11.5s5.4-2.2,6.4-4h.8c-1.8,3.2-5.7,6.1-11.7,6.1-10.5,0-9.3-9.1-7-17.8l22-82.1h-3.3l.2-.8c8.3,0,11.9-.1,15.2-.7-25.6,95.7-23.4,87.9-23.4,87.9Z"/>
    </g>
  </g>
</svg>