<?xml version="1.0" encoding="UTF-8"?>
<svg id="Layer_1" data-name="Layer 1" xmlns="http://www.w3.org/2000/svg" version="1.1" viewBox="0 0 246.4 246.4">
  <defs>
    <style>
      .cls-1 {
        fill: #fcecc9;
        stroke-width: 0px;
      }

      .cls-2 {
        fill: none;
        stroke: #fcecc9;
        stroke-miterlimit: 10;
        stroke-width: .5px;
      }
    </style>
  </defs>
  <path class="cls-2" d="M123.2,52.3l-.4-.4c-.5-.4-1.2-.5-1.8-.2l-.5.3c-1.3.8-2.8-.5-2.2-1.9l.2-.5c.3-.6,0-1.3-.4-1.8l-.4-.4c-1.1-1-.3-2.8,1.1-2.7h.6c.7.1,1.3-.3,1.5-.9l.2-.5c.6-1.4,2.6-1.2,2.9.3v.6c.3.6.8,1.1,1.5,1.2h.6c1.5.2,1.9,2.1.7,2.9l-.5.3c-.6.3-.9,1-.7,1.7v.6c.5,1.4-1.2,2.5-2.4,1.5Z"/>
  <circle class="cls-2" cx="34.1" cy="49.5" r="3.1"/>
  <circle class="cls-2" cx="189.9" cy="38.7" r="2.7"/>
  <circle class="cls-1" cx="80.7" cy="36.9" r="2.7"/>
  <circle class="cls-1" cx="20.1" cy="119.1" r="1.8"/>
  <circle class="cls-1" cx="209.4" cy="78.4" r="2.7"/>
  <circle class="cls-1" cx="58.3" cy="83.9" r="2.4"/>
  <circle class="cls-1" cx="211.2" cy="140.6" r="2.4"/>
  <path class="cls-2" d="M-.3,246.6c10.5-42.9,61.4-75.4,122.6-75.4s111.8,32.8,122.6,75.4"/>
  <path class="cls-2" d="M226.6,173.9l-2.6,3.8c-.2.3-.2.6,0,.9l2.8,3.7c.4.6-.1,1.4-.8,1.2l-4.4-1.3c-.3,0-.7,0-.9.3l-2.6,3.8c-.4.6-1.4.3-1.4-.4v-4.6c0-.3-.3-.6-.6-.7l-4.4-1.3c-.7-.2-.7-1.2,0-1.5l4.4-1.5c.3-.1.5-.4.5-.7v-4.6c0-.7.9-1.1,1.3-.5l2.8,3.7c.2.3.6.4.9.3l4.4-1.5c.7-.2,1.3.6.9,1.2Z"/>
  <path class="cls-2" d="M178,83.2l-.4-.4c-.5-.4-1.2-.5-1.8-.2l-.5.3c-1.3.8-2.8-.5-2.2-1.9l.2-.5c.3-.6,0-1.3-.4-1.8l-.4-.4c-1.1-1-.3-2.8,1.1-2.7h.6c.7.1,1.3-.3,1.5-.9l.2-.5c.6-1.4,2.6-1.2,2.9.3v.6c.3.6.8,1.1,1.5,1.2h.6c1.5.2,1.9,2.1.7,2.9l-.5.3c-.6.3-.9,1-.7,1.7v.6c.5,1.4-1.2,2.5-2.4,1.5Z"/>
  <circle class="cls-1" cx="120.9" cy="90" r="3.1"/>
  <path class="cls-2" d="M34.9,168.7l-.4-.4c-.5-.4-1.2-.5-1.8-.2l-.5.3c-1.3.8-2.8-.5-2.2-1.9l.2-.5c.3-.6,0-1.3-.4-1.8l-.4-.4c-1.1-1-.3-2.8,1.1-2.7h.6c.7.1,1.3-.3,1.5-.9l.2-.5c.6-1.4,2.6-1.2,2.9.3v.6c.3.6.8,1.1,1.5,1.2h.6c1.5.2,1.9,2.1.7,2.9l-.5.3c-.6.3-.9,1-.7,1.7v.6c.5,1.4-1.2,2.5-2.4,1.5Z"/>
  <circle class="cls-1" cx="149.2" cy="156.5" r="1.4"/>
  <circle class="cls-1" cx="219.2" cy="46" r="1.4"/>
  <circle class="cls-1" cx="87.9" cy="74.5" r="1.4"/>
  <circle class="cls-1" cx="155.8" cy="45.8" r="1.4"/>
  <circle class="cls-1" cx="197.3" cy="64.1" r="1.4"/>
  <circle class="cls-1" cx="22.9" cy="80.2" r="1.4"/>
  <path class="cls-2" d="M188.1,202c4.5,2.8,7.3,6.6,7.3,10.9,0,8.4-10.7,15.2-23.9,15.2s-23.9-6.8-23.9-15.2"/>
  <path class="cls-2" d="M188.1,202c4.1,2.5,4.6,6.4,4.6,10.4,0,7.7-11.2,13.6-23.3,13.6s-21.9-6.3-21.9-14"/>
  <path class="cls-2" d="M147.5,212.9"/>
  <ellipse class="cls-2" cx="170.1" cy="211" rx="22.6" ry="15"/>
  <path class="cls-2" d="M128.9,174.8c2.3,1.4,3.8,3.4,3.8,5.6,0,4.3-5.5,7.8-12.3,7.8s-12.3-3.5-12.3-7.8"/>
  <path class="cls-2" d="M128.9,174.8c2.1,1.3,2.3,3.3,2.3,5.3,0,4-5.7,7-11.9,7s-11.2-3.2-11.2-7.2"/>
  <ellipse class="cls-2" cx="119.7" cy="179.4" rx="11.6" ry="7.7"/>
  <path class="cls-2" d="M99.9,187.7c3,1.8,4.8,4.4,4.8,7.2,0,5.5-7.1,10-15.8,10s-15.8-4.5-15.8-10"/>
  <path class="cls-2" d="M99.9,187.7c2.7,1.7,3,4.2,3,6.9,0,5.1-7.4,9-15.4,9s-14.5-4.1-14.5-9.3"/>
  <ellipse class="cls-2" cx="88" cy="193.6" rx="15" ry="9.9"/>
  <circle class="cls-2" cx="145.2" cy="183.4" r="1.6"/>
  <circle class="cls-2" cx="57" cy="219.2" r="1.6"/>
  <circle class="cls-2" cx="66.5" cy="188.9" r="1.6"/>
</svg>