<?xml version="1.0" encoding="UTF-8"?>
<svg id="Layer_1" data-name="Layer 1" xmlns="http://www.w3.org/2000/svg" viewBox="0 0 196.92 255.59">
  <defs>
    <style>
      .cls-1 {
        fill: none;
        stroke: #f93943;
        stroke-miterlimit: 10;
        stroke-width: 3px;
      }
    </style>
  </defs>
  <rect class="cls-1" x="75.89" y="12.71" width="36.5" height="231.17" transform="translate(96.48 -30.82) rotate(37.11)"/>
  <line class="cls-1" x1="158.65" y1="32.96" x2="19.94" y2="216.28"/>
  <line class="cls-1" x1="168.54" y1="40.05" x2="29.83" y2="223.37"/>
  <polygon class="cls-1" points="9.85 209.45 38.96 231.48 2.11 252.58 9.85 209.45"/>
  <rect class="cls-1" x="147.18" y="31.52" width="36.5" height="5.12" transform="translate(54.07 -92.92) rotate(37.11)"/>
  <rect class="cls-1" x="150.27" y="27.43" width="36.5" height="5.12" transform="translate(52.23 -95.61) rotate(37.11)"/>
  <path class="cls-1" d="M166.31,7.3h21.4c4.28,0,7.75,3.47,7.75,7.75v14.66h-36.5v-15.07c0-4.05,3.29-7.35,7.35-7.35Z" transform="translate(47.06 -103.18) rotate(37.11)"/>
  <path class="cls-1" d="M4.65,239.45s7.48,2.75,8.24,6.68l-10.78,6.45,2.54-13.13Z"/>
</svg>