<?xml version="1.0" encoding="UTF-8"?>
<svg id="Layer_1" data-name="Layer 1" xmlns="http://www.w3.org/2000/svg" viewBox="0 0 300 300">
  <defs>
    <style>
      .cls-1 {
        fill: #7eb2dd;
      }

      .cls-1, .cls-2 {
        stroke-width: 0px;
      }

      .cls-3 {
        fill: none;
        stroke: #fcecc9;
        stroke-miterlimit: 10;
        stroke-width: 4px;
      }

      .cls-2 {
        fill: #f93943;
      }
    </style>
  </defs>
  <circle class="cls-1" cx="150" cy="150" r="150"/>
  <path class="cls-3" d="M35.73,126.28s0-17.11,9.12-18.25c9.12-1.14,4.57,30.8,13.69,30.8s4.57-30.8,12.55-30.8,3.42,28.52,13.69,28.52-1.14-28.52,11.41-28.52,2.28,28.52,12.55,28.52,2.28-31.94,13.69-31.94"/>
  <path class="cls-3" d="M260.22,130.84s.06-24.35-9.12-23.95c-12.4.53-6.12,32.17-13.47,32.28-9.12.14-4.57-30.8-12.55-30.8s-3.42,28.52-13.69,28.52,1.14-28.52-11.41-28.52-2.28,28.52-12.55,28.52-2.28-29.66-11.41-29.66"/>
  <path class="cls-2" d="M220.15,218.44c0,11.02-31.98-10.84-70.72-10.84s-69.58,21.86-69.58,10.84,30.84-34.79,69.58-34.79,70.72,23.77,70.72,34.79Z"/>
</svg>