<?xml version="1.0" encoding="UTF-8"?>
<svg id="Layer_1" data-name="Layer 1" xmlns="http://www.w3.org/2000/svg" version="1.1" viewBox="0 0 1366 768">
  <defs>
    <style>
      .cls-1 {
        fill: none;
        stroke: #fcecc9;
        stroke-miterlimit: 10;
        stroke-width: 4px;
      }
    </style>
  </defs>
  <path class="cls-1" d="M105.21,355.51c32.08,44.07,98.23,42.75,128.53-2.57l9.72-14.54c26.78-40.06,86.16-38.54,110.85,2.83l8.06,13.51c24.38,40.85,83.97,39.61,106.64-2.22l8.28-15.29c20.97-38.72,75.79-40.77,99.59-3.72l15.95,24.83c26,40.47,85.88,38.22,108.78-4.08l16.52-30.52c17.9-33.07,64.72-34.77,84.97-3.09l22.57,35.31c26.81,41.94,88.61,40.31,113.16-2.99l17.13-30.21c18.53-32.67,65.3-33.51,84.99-1.52l22.3,36.23c25.95,42.17,87.23,42.19,113.22.05l19.77-32.06c21.52-34.9,71.62-36.71,95.6-3.45"/>
</svg>