<?xml version="1.0" encoding="UTF-8"?>
<svg id="Layer_1" data-name="Layer 1" xmlns="http://www.w3.org/2000/svg" version="1.1" viewBox="0 0 300 300">
  <defs>
    <style>
      .cls-1 {
        fill: none;
        stroke: #435e94;
        stroke-miterlimit: 10;
        stroke-width: .5px;
      }
    </style>
  </defs>
  <path class="cls-1" d="M1,299.8c12.6-52.2,74.1-91.8,148.1-91.8s135.1,40,148.1,91.8"/>
  <line class="cls-1" x1="149.3" y1="160.2" x2="149.5" y2="183.7"/>
  <line class="cls-1" x1="147.4" y1="40.4" x2="148.5" y2="135.1"/>
  <line class="cls-1" x1="218.7" y1="163.2" x2="211" y2="190.9"/>
  <line class="cls-1" x1="251.9" y1="41.2" x2="227.4" y2="136.1"/>
  <line class="cls-1" x1="300.3" y1="149.2" x2="263.6" y2="209.8"/>
  <path class="cls-1" d="M91.8,215.6"/>
  <line class="cls-1" x1="16.1" y1="39.8" x2="55.4" y2="134.5"/>
  <line class="cls-1" x1="1.7" y1="183.7" x2="31.9" y2="224.5"/>
  <path class="cls-1" d="M.4,251.1s27.1-4.3,31.6-26.6c0,0,34.1-4,50.5-30.4,0,0,40,12.4,67-10.4,0,0,29.1,19.6,61.5,7.2,0,0,22.1,24.7,52.7,18.9,0,0,4,34.5,35.6,44.6"/>
  <line class="cls-1" x1="-.2" y1="118.1" x2="58.5" y2="214.9"/>
  <line class="cls-1" x1="112.1" y1="162.4" x2="119.5" y2="196.2"/>
  <line class="cls-1" x1="83.1" y1="41.1" x2="106.3" y2="136.2"/>
  <line class="cls-1" x1="186" y1="162.6" x2="181" y2="194.4"/>
  <line class="cls-1" x1="203.8" y1="40.3" x2="189.5" y2="134.7"/>
  <line class="cls-1" x1="252.6" y1="163.5" x2="234.1" y2="206.4"/>
  <line class="cls-1" x1="292.4" y1="68.9" x2="263.3" y2="140.4"/>
  <line class="cls-1" x1="300.7" y1="224" x2="282.3" y2="244.6"/>
  <line class="cls-1" x1="69.8" y1="165.2" x2="82.4" y2="194.1"/>
</svg>